<svg width="36" height="37" viewBox="0 0 36 37" fill="none" xmlns="http://www.w3.org/2000/svg">
<path d="M29.025 15.2045C28.005 10.0295 23.46 6.14453 18 6.14453C13.665 6.14453 9.9 8.60453 8.025 12.2045C3.51 12.6845 0 16.5095 0 21.1445C0 26.1095 4.035 30.1445 9 30.1445H28.5C32.64 30.1445 36 26.7845 36 22.6445C36 18.6845 32.925 15.4745 29.025 15.2045ZM28.5 27.1445H9C5.685 27.1445 3 24.4595 3 21.1445C3 18.0695 5.295 15.5045 8.34 15.1895L9.945 15.0245L10.695 13.5995C12.12 10.8545 14.91 9.14453 18 9.14453C21.93 9.14453 25.32 11.9345 26.085 15.7895L26.535 18.0395L28.83 18.2045C31.17 18.3545 33 20.3195 33 22.6445C33 25.1195 30.975 27.1445 28.5 27.1445ZM12 19.6445H15.825V24.1445H20.175V19.6445H24L18 13.6445L12 19.6445Z" fill="#00E5E5"/>
</svg>
