<svg width="16" height="15" viewBox="0 0 16 15" fill="none" xmlns="http://www.w3.org/2000/svg">
<g clip-path="url(#clip0_1510_5253)">
<path d="M12.952 5.21781C12.3036 2.36463 9.81476 1.08008 7.62856 1.08008C7.62856 1.08008 7.62856 1.08008 7.62238 1.08008C5.44235 1.08008 2.94736 2.35845 2.29891 5.21163C1.57635 8.39831 3.52788 11.0971 5.29413 12.7954C5.94876 13.4253 6.78866 13.7403 7.62856 13.7403C8.46845 13.7403 9.30835 13.4253 9.9568 12.7954C11.7231 11.0971 13.6746 8.40448 12.952 5.21781ZM7.62856 8.31185C6.55398 8.31185 5.6832 7.44107 5.6832 6.36649C5.6832 5.29192 6.55398 4.42114 7.62856 4.42114C8.70313 4.42114 9.57391 5.29192 9.57391 6.36649C9.57391 7.44107 8.70313 8.31185 7.62856 8.31185Z" fill="#73FBFD"/>
</g>
<defs>
<clipPath id="clip0_1510_5253">
<rect width="14.8217" height="14.8217" fill="white" transform="translate(0.217773)"/>
</clipPath>
</defs>
</svg>
