<svg width="20" height="20" viewBox="0 0 20 20" fill="none" xmlns="http://www.w3.org/2000/svg">
<path d="M4.43033 16.198C4.93727 15.0037 6.12085 14.166 7.50008 14.166H12.5001C13.8793 14.166 15.0629 15.0037 15.5698 16.198M13.3334 7.91602C13.3334 9.75697 11.841 11.2493 10.0001 11.2493C8.15913 11.2493 6.66675 9.75697 6.66675 7.91602C6.66675 6.07507 8.15913 4.58268 10.0001 4.58268C11.841 4.58268 13.3334 6.07507 13.3334 7.91602ZM18.3334 9.99935C18.3334 14.6017 14.6025 18.3327 10.0001 18.3327C5.39771 18.3327 1.66675 14.6017 1.66675 9.99935C1.66675 5.39698 5.39771 1.66602 10.0001 1.66602C14.6025 1.66602 18.3334 5.39698 18.3334 9.99935Z" stroke="white" stroke-width="1.2" stroke-linecap="round" stroke-linejoin="round"/>
</svg>
